<svg xmlns="http://www.w3.org/2000/svg" xmlns:xlink="http://www.w3.org/1999/xlink" version="1.1" width="256" height="256" viewBox="0 0 256 256" xml:space="preserve">

<defs>
</defs>
<g style="stroke: none; stroke-width: 0; stroke-dasharray: none; stroke-linecap: butt; stroke-linejoin: miter; stroke-miterlimit: 10; fill: none; fill-rule: nonzero; opacity: 1;" transform="translate(1.4065934065934016 1.4065934065934016) scale(2.81 2.81)" >
	<path d="M 10 90 c -2.559 0 -5.119 -0.977 -7.071 -2.929 c -3.905 -3.905 -3.905 -10.237 0 -14.143 l 70 -70 c 3.906 -3.905 10.236 -3.905 14.143 0 c 3.905 3.905 3.905 10.237 0 14.143 l -70 70 C 15.119 89.023 12.559 90 10 90 z" style="stroke: none; stroke-width: 1; stroke-dasharray: none; stroke-linecap: butt; stroke-linejoin: miter; stroke-miterlimit: 10; fill: rgb(236,0,0); fill-rule: nonzero; opacity: 1;" transform=" matrix(1 0 0 1 0 0) " stroke-linecap="round" />
	<path d="M 80 90 c -2.56 0 -5.118 -0.977 -7.071 -2.929 l -70 -70 c -3.905 -3.905 -3.905 -10.237 0 -14.143 c 3.905 -3.905 10.237 -3.905 14.143 0 l 70 70 c 3.905 3.905 3.905 10.237 0 14.143 C 85.118 89.023 82.56 90 80 90 z" style="stroke: none; stroke-width: 1; stroke-dasharray: none; stroke-linecap: butt; stroke-linejoin: miter; stroke-miterlimit: 10; fill: rgb(236,0,0); fill-rule: nonzero; opacity: 1;" transform=" matrix(1 0 0 1 0 0) " stroke-linecap="round" />
</g>
</svg>